<?xml version="1.0" encoding="UTF-8" standalone="no"?>
<svg
   xmlns:dc="http://purl.org/dc/elements/1.1/"
   xmlns:cc="http://creativecommons.org/ns#"
   xmlns:rdf="http://www.w3.org/1999/02/22-rdf-syntax-ns#"
   xmlns:svg="http://www.w3.org/2000/svg"
   xmlns="http://www.w3.org/2000/svg"
   xmlns:sodipodi="http://sodipodi.sourceforge.net/DTD/sodipodi-0.dtd"
   xmlns:inkscape="http://www.inkscape.org/namespaces/inkscape"
   width="50mm"
   height="50mm"
   viewBox="0 0 50 50"
   version="1.1"
   id="svg1106"
   inkscape:version="1.0.2 (e86c870879, 2021-01-15)"
   sodipodi:docname="SettingsIcon.svg"
   inkscape:export-filename="/home/lucius/Desktop/SettingsIcon.png"
   inkscape:export-xdpi="96"
   inkscape:export-ydpi="96">
  <defs
     id="defs1100" />
  <sodipodi:namedview
     id="base"
     pagecolor="#ffffff"
     bordercolor="#666666"
     borderopacity="1.0"
     inkscape:pageopacity="0.0"
     inkscape:pageshadow="2"
     inkscape:zoom="3.959798"
     inkscape:cx="128.65122"
     inkscape:cy="98.137563"
     inkscape:document-units="mm"
     inkscape:current-layer="layer1"
     inkscape:document-rotation="0"
     showgrid="false"
     inkscape:window-width="1920"
     inkscape:window-height="999"
     inkscape:window-x="0"
     inkscape:window-y="46"
     inkscape:window-maximized="1"
     inkscape:snap-page="true" />
  <metadata
     id="metadata1103">
    <rdf:RDF>
      <cc:Work
         rdf:about="">
        <dc:format>image/svg+xml</dc:format>
        <dc:type
           rdf:resource="http://purl.org/dc/dcmitype/StillImage" />
        <dc:title />
      </cc:Work>
    </rdf:RDF>
  </metadata>
  <g
     inkscape:label="Layer 1"
     inkscape:groupmode="layer"
     id="layer1">
    <ellipse
       style="opacity:0.95;fill:none;stroke:#000000;stroke-width:0.221;stroke-miterlimit:4;stroke-dasharray:none"
       id="path1108-3"
       cx="24.846823"
       cy="25.842196"
       rx="8.2954264"
       ry="8.6166277" />
    <path
       id="path1298"
       style="opacity:0.95;fill:none;stroke:#000000;stroke-width:0.241;stroke-miterlimit:4;stroke-dasharray:none"
       d="m 21.39764,9.327664 c -1.943267,0.4378895 -3.79279,1.2421 -5.456866,2.372758 L 11.86128,7.5688344 6.9828483,12.635725 11.098915,16.8053 c -1.019171,1.672983 -1.7474007,3.518972 -2.1514711,5.453762 l -5.2313854,-0.03996 -0.075069,7.159171 5.3064546,0.04666 c 0.4099959,1.963491 1.1537879,3.835309 2.1964499,5.527557 l -4.415537,3.693607 4.878012,5.067328 4.403766,-3.681819 c 1.64626,1.106059 3.471435,1.893924 5.387505,2.325599 l -0.0025,4.560218 h 6.89875 l 0.0025,-4.560218 c 1.93504,-0.43612 3.777182,-1.235483 5.435848,-2.358785 l 4.434293,4.343302 4.878012,-5.067328 -4.4633,-4.373429 c 1.026205,-1.678817 1.759089,-3.532595 2.164924,-5.476032 l 4.807123,0.02308 v -7.165869 l -4.807124,-0.02308 C 40.340283,20.315778 39.607402,18.46215 38.581242,16.783468 L 42.746148,12.591012 37.868136,7.5241223 33.732235,11.686012 C 32.073569,10.56271 30.231427,9.7633462 28.296387,9.3272273 l 0.1207,-4.9101743 H 21.51834 Z"
       sodipodi:nodetypes="ccccccccccccccccccccccccccccccccc" />
  </g>
</svg>
